<?xml version="1.0" encoding="UTF-8"?>
<svg version="1.1" xmlns="http://www.w3.org/2000/svg" width="523" height="53">
<path d="M0,0 L2,0 L8,10 L17,9 L15,23 L19,20 L23,22 L23,24 L28,23 L35,23 L33,34 L37,38 L36,40 L0,33 L-4,33 L0,38 L0,45 L-4,50 L-11,53 L-18,53 L-31,43 L-35,40 L-33,36 L-32,35 L-33,23 L-26,23 L-21,24 L-19,20 L-14,23 L-15,9 L-7,11 Z M14,23 Z M-6,31 Z " fill="#DF2D3B" transform="translate(35,0)"/>
<path d="M0,0 L7,0 L7,5 L7,8 L10,6 L19,6 L22,8 L23,6 L29,6 L32,12 L34,6 L40,6 L42,13 L45,6 L51,6 L51,8 L54,6 L64,6 L67,9 L68,25 L53,25 L50,23 L50,16 L53,14 L50,13 L45,25 L39,25 L37,18 L34,25 L28,25 L25,16 L22,23 L19,25 L10,25 L6,21 L5,19 L5,12 L3,11 L3,25 L-3,25 L-3,11 L-6,11 L-6,25 L-12,25 L-13,12 L-17,11 L-17,25 L-23,25 L-23,6 L-9,6 L-7,8 L-6,6 L-3,6 L-2,1 Z M50,9 Z M23,10 L24,12 Z M57,10 L56,13 L61,13 L60,10 Z M12,11 L11,18 L12,20 L17,20 L18,19 L18,12 L17,11 Z M57,17 L56,21 L61,20 L61,17 Z " fill="#000000" transform="translate(359,15)"/>
<path d="M0,0 L7,0 L12,3 L15,7 L15,10 L8,10 L6,7 L1,7 L-1,10 L-1,17 L0,19 L5,20 L7,19 L9,15 L15,15 L16,17 L18,15 L16,14 L17,9 L20,7 L29,7 L33,10 L33,26 L18,26 L15,23 L14,21 L9,26 L-1,26 L-7,21 L-9,12 L-6,4 Z M23,11 L22,14 L27,14 L26,11 Z M23,18 L21,19 L22,22 L26,21 L27,18 Z " fill="#000000" transform="translate(100,14)"/>
<path d="M0,0 L7,0 L7,9 L15,9 L15,0 L22,0 L22,25 L15,25 L15,15 L7,15 L7,25 L0,25 Z " fill="#000000" transform="translate(219,15)"/>
<path d="M0,0 L6,0 L6,6 L9,6 L9,1 L15,1 L15,6 L18,6 L18,11 L15,11 L15,20 L18,20 L18,25 L12,25 L9,23 L9,11 L6,11 L6,25 L0,25 Z " fill="#000000" transform="translate(280,15)"/>
<path d="M0,0 L6,0 L6,25 L-8,25 L-13,20 L-13,11 L-8,6 L-1,6 Z M-6,11 L-7,18 L-6,20 L-1,20 L0,13 L-1,11 Z " fill="#000000" transform="translate(184,15)"/>
<path d="M0,0 L6,0 L7,6 L14,6 L17,9 L17,25 L11,25 L11,11 L7,12 L6,25 L0,25 Z " fill="#000000" transform="translate(299,15)"/>
<path d="M0,0 L10,0 L13,2 L14,19 L-2,19 L-4,17 L-4,10 L-1,8 L-4,7 L-3,2 Z M3,4 L2,7 L7,7 L6,4 Z M4,11 L2,12 L2,15 L6,15 L7,11 Z " fill="#000000" transform="translate(195,21)"/>
<path d="M0,0 L10,0 L13,2 L14,19 L-2,19 L-4,17 L-4,10 L-1,8 L-4,7 L-3,2 Z M3,4 L2,7 L7,7 L6,4 Z M3,11 L2,15 L7,14 L7,11 Z " fill="#000000" transform="translate(157,21)"/>
<path d="M0,0 L10,0 L13,2 L14,19 L-1,19 L-4,17 L-4,10 L3,7 L7,7 L7,4 L3,5 L2,7 L-4,7 L-3,3 Z M4,11 L2,12 L2,15 L7,14 L7,11 Z " fill="#000000" transform="translate(265,21)"/>
<path d="M0,0 L8,0 L13,5 L13,11 L1,11 L2,13 L7,13 L8,12 L13,12 L11,17 L8,19 L0,19 L-4,16 L-5,13 L-5,6 L-2,1 Z M2,5 L1,7 L7,7 L7,5 Z " fill="#000000" transform="translate(247,21)"/>
<path d="M0,0 L6,0 L10,8 L13,0 L18,0 L17,8 L11,23 L8,25 L2,25 L2,20 L6,20 L0,3 Z " fill="#000000" transform="translate(426,21)"/>
<path d="M0,0 L15,0 L18,4 L18,19 L12,19 L11,6 L7,5 L6,19 L0,19 Z " fill="#000000" transform="translate(134,21)"/>
<path d="M0,0 L7,0 L7,25 L0,25 Z " fill="#000000" transform="translate(327,15)"/>
</svg>
