<?xml version="1.0" encoding="UTF-8"?>
<svg version="1.1" xmlns="http://www.w3.org/2000/svg" width="2000" height="432">
<path d="M0 0 C22.11 0 44.22 0 67 0 C67.36272731 36.67128302 67.36272731 36.67128302 67.43945312 52.07226562 C67.49279763 62.69449091 67.55540892 73.31607233 67.67895508 83.93774414 C67.76890267 91.67455094 67.82678069 99.41083402 67.84679645 107.14814919 C67.85849008 111.24208363 67.88579874 115.33452038 67.95157051 119.42797279 C68.01309434 123.28866806 68.03142027 127.14726291 68.01796913 131.00840187 C68.02042621 132.41811074 68.03807746 133.8278967 68.07284927 135.2371788 C68.29395274 144.66850048 66.71075939 149.83490502 60.19032192 156.75937176 C59.10611257 157.86848274 59.10611257 157.86848274 58 159 C41.44182718 180.56191309 35.10612486 208.68429174 38.49609375 235.48828125 C41.82663722 257.58230847 51.09600128 278.09600128 67 294 C67.22705078 296.70556641 67.22705078 296.70556641 67.1953125 300.1015625 C67.18564453 301.91914062 67.18564453 301.91914062 67.17578125 303.7734375 C67.15064453 305.67996094 67.15064453 305.67996094 67.125 307.625 C67.11597656 308.90375 67.10695313 310.1825 67.09765625 311.5 C67.07402303 314.66685167 67.04107629 317.83333424 67 321 C59.18954162 321.0254465 51.37909401 321.04290736 43.56860352 321.05493164 C40.91396124 321.05937963 38.25937348 321.06676042 35.60473633 321.07543945 C31.77945273 321.08762874 27.95420579 321.09325664 24.12890625 321.09765625 C22.36118614 321.10539818 22.36118614 321.10539818 20.55775452 321.11329651 C14.28342533 321.11371946 8.22003347 320.83492321 2 320 C1.17648136 313.61773055 0.87913782 307.43255401 1 301 C0.31035156 301.58007812 -0.37929688 302.16015625 -1.08984375 302.7578125 C-24.58216677 322.28641023 -46.66324562 327.55431926 -77 326 C-87.73781273 324.85092138 -97.49766395 321.057695 -107 316 C-107.8353125 315.57203125 -108.670625 315.1440625 -109.53125 314.703125 C-132.56831034 301.98786443 -146.7886277 279.71711187 -154.1875 255 C-162.33371967 224.65780528 -157.76105281 193.83588387 -142.26171875 166.60546875 C-130.08814746 146.44993891 -110.15270887 132.26367749 -87.6171875 126.0703125 C-62.73982877 120.00970307 -36.88863315 122.52443123 -14.35546875 134.86328125 C-9.41435082 138.00972072 -4.73747684 141.5545623 0 145 C0 97.15 0 49.3 0 0 Z M-75 193.1875 C-83.43798409 202.34963944 -86.18276483 212.08990409 -86.25 224.125 C-86.270625 225.02476562 -86.29125 225.92453125 -86.3125 226.8515625 C-86.37892212 238.40901199 -82.77042299 248.57717051 -74.99609375 257.23046875 C-65.56308103 266.22473669 -54.88232533 269.43815404 -42 270 C-29.99353937 269.69250043 -18.82767427 264.9588437 -10 256.8125 C-0.80079511 246.75675834 2.56186283 234.74716128 2.3125 221.40625 C1.05792064 207.73133498 -5.58222997 196.7068224 -16 188 C-34.38108137 175.51354128 -58.81416168 178.25090423 -75 193.1875 Z " fill="#4A4A4A" transform="translate(961,50)"/>
<path d="M0 0 C5.31109175 4.51442798 11.82002465 10.55848228 13 17.6875 C13.680625 17.006875 14.36125 16.32625 15.0625 15.625 C15.76439453 14.93083984 15.76439453 14.93083984 16.48046875 14.22265625 C17.46272832 13.23029632 18.42551038 12.21809744 19.36328125 11.18359375 C32.45273282 -2.85289824 50.49827297 -13.46523962 69.859375 -14.5234375 C91.41883049 -15.21100531 112.53860779 -8.93946315 128.8125 5.6875 C132.42228897 9.54990772 134.95375231 13.7127686 137.375 18.375 C137.69702393 18.98537109 138.01904785 19.59574219 138.35083008 20.22460938 C143.50126094 30.898908 144.44778777 42.62654322 144.34057617 54.30224609 C144.34101425 55.58200821 144.34145233 56.86177032 144.34190369 58.18031311 C144.34275329 61.64024922 144.32529864 65.09986388 144.30418181 68.55972624 C144.2852393 72.19382248 144.2836509 75.82792866 144.28010559 79.46206665 C144.27083613 86.32174321 144.24629262 93.18127381 144.21605712 100.04088652 C144.17603252 109.32586244 144.16001696 118.61087918 144.14255047 127.8959198 C144.11446685 142.49322222 144.05466389 157.09021683 144 171.6875 C123.21 171.6875 102.42 171.6875 81 171.6875 C80.97421875 163.87449219 80.9484375 156.06148437 80.921875 148.01171875 C80.89669528 143.04879574 80.87035354 138.08593299 80.83984375 133.12304688 C80.79157511 125.25349737 80.74750524 117.38408743 80.72900391 109.5144043 C80.71381026 103.16648315 80.67931569 96.81892818 80.63169098 90.47117043 C80.61690527 88.05484012 80.60896061 85.63845753 80.60811615 83.22208214 C80.60573638 79.82564062 80.57857368 76.43020282 80.54589844 73.03393555 C80.5509288 72.04490234 80.55595917 71.05586914 80.56114197 70.03686523 C80.42183643 60.61808641 77.82682776 50.57074782 71 43.6875 C68.72212182 42.0222925 66.57420593 40.928635 64 39.6875 C63.26136719 39.33042969 62.52273438 38.97335938 61.76171875 38.60546875 C53.63624528 35.90463952 42.72116909 36.67558636 35.046875 40.37109375 C28.33130974 44.6900737 25.23031661 51.20501098 23 58.6875 C22.46867818 62.5340196 22.43498407 66.316787 22.45410156 70.19580078 C22.43859505 71.85122139 22.43859505 71.85122139 22.42277527 73.54008484 C22.39349448 77.15447894 22.39185116 80.76830945 22.390625 84.3828125 C22.37563349 86.90201882 22.35890432 89.42121536 22.34051514 91.94039917 C22.3013826 97.87224126 22.27965441 103.80398206 22.26654124 109.73592365 C22.24624742 118.3484819 22.19033053 126.96082385 22.13883972 135.57324219 C22.07013811 147.61136599 22.03859707 159.64907255 22 171.6875 C1.21 171.6875 -19.58 171.6875 -41 171.6875 C-41.04898438 164.06785156 -41.09796875 156.44820312 -41.1484375 148.59765625 C-41.18383467 143.76235674 -41.21980094 138.92707482 -41.2578125 134.09179688 C-41.31805441 126.42181961 -41.37622122 118.75186689 -41.421875 111.08178711 C-41.45882564 104.89606422 -41.50521227 98.71047667 -41.55806351 92.52486992 C-41.5765555 90.16828225 -41.5916825 87.81166563 -41.60334396 85.45503426 C-41.62029531 82.14704744 -41.649352 78.83936705 -41.68115234 75.53149414 C-41.68331253 74.5633226 -41.68547272 73.59515106 -41.68769836 72.59764099 C-41.81385706 62.28335701 -43.53087626 52.81025073 -50.6015625 44.89453125 C-58.16330819 37.90250612 -66.21835321 36.9902178 -76.140625 37.3359375 C-82.57878416 37.92240949 -86.7060141 39.91487453 -91.75 43.8125 C-99.01541857 53.09609039 -100.13933279 61.93581618 -100.20532227 73.37451172 C-100.21522186 74.43852707 -100.22512146 75.50254242 -100.23532104 76.59880066 C-100.26683047 80.10490721 -100.29165172 83.61102729 -100.31640625 87.1171875 C-100.33698489 89.55242255 -100.3579816 91.98765409 -100.37937927 94.42288208 C-100.43450591 100.82447471 -100.48395665 107.22609907 -100.53222656 113.62774658 C-100.59135514 121.3129116 -100.65753128 128.99801877 -100.72252655 136.68313599 C-100.82041766 148.35122192 -100.90935483 160.01934539 -101 171.6875 C-121.79 171.6875 -142.58 171.6875 -164 171.6875 C-164 111.9575 -164 52.2275 -164 -9.3125 C-143.21 -9.3125 -122.42 -9.3125 -101 -9.3125 C-100.505 -0.4025 -100.505 -0.4025 -100 8.6875 C-98.4325 7.181875 -96.865 5.67625 -95.25 4.125 C-69.50332562 -19.59960343 -28.20845776 -20.44510443 0 0 Z " fill="#4A4A4A" transform="translate(424,205.3125)"/>
<path d="M0 0 C1.72855711 1.51895662 3.4374505 3.06061016 5.125 4.625 C5.97578125 5.38425781 6.8265625 6.14351562 7.703125 6.92578125 C25.2693862 23.3874156 32.21110029 45.31380229 35.125 68.625 C35.125 75.885 35.125 83.145 35.125 90.625 C-10.415 90.955 -55.955 91.285 -102.875 91.625 C-101.92838675 101.09113245 -100.74860434 109.67509373 -94.1171875 116.890625 C-79.71138048 128.0337928 -63.73454742 129.20687505 -46.14453125 127.19921875 C-33.81707136 124.54482514 -25.23149226 116.63405999 -16.875 107.625 C-11.49168714 109.22005566 -6.67365397 111.59290431 -1.6875 114.125 C-0.8219751 114.56134766 0.0435498 114.99769531 0.93530273 115.44726562 C7.21172377 118.62381974 13.4583329 121.85684452 19.6875 125.125 C20.49018311 125.54587891 21.29286621 125.96675781 22.11987305 126.40039062 C22.865354 126.79419922 23.61083496 127.18800781 24.37890625 127.59375 C25.35839233 128.11098633 25.35839233 128.11098633 26.35766602 128.63867188 C27.99507698 129.55249151 29.56478234 130.58485489 31.125 131.625 C30.27875038 137.68626292 26.97616259 141.06173564 23.125 145.625 C22.46242188 146.43453125 21.79984375 147.2440625 21.1171875 148.078125 C3.49159346 168.76055639 -22.35401021 179.7086392 -49.06494141 182.4140625 C-65.06979582 183.61546947 -81.26003107 183.58933247 -96.875 179.625 C-97.87273437 179.38136719 -98.87046875 179.13773438 -99.8984375 178.88671875 C-113.63103281 174.91743435 -127.3139899 167.18469787 -137.875 157.625 C-138.68839844 156.95210937 -139.50179688 156.27921875 -140.33984375 155.5859375 C-160.18053927 138.77178875 -171.92807413 114.19413436 -174.05957031 88.390625 C-175.60356259 62.2649427 -167.78939923 37.00627085 -150.375 17.3125 C-148.88658567 15.73895972 -147.38672377 14.17616004 -145.875 12.625 C-145.14410156 11.84382813 -144.41320313 11.06265625 -143.66015625 10.2578125 C-138.52667468 4.89878253 -133.14618436 0.582029 -126.875 -3.375 C-125.83601563 -4.035 -124.79703125 -4.695 -123.7265625 -5.375 C-87.48432012 -27.26962697 -33.85668416 -26.98997638 0 0 Z M-96.17578125 36.32421875 C-100.2938765 41.90021439 -100.875 45.39138709 -100.875 52.625 C-77.775 52.625 -54.675 52.625 -30.875 52.625 C-32.16326269 42.31889849 -34.75447845 36.19189119 -42.875 29.625 C-59.64536653 18.03597157 -83.05853286 20.57836655 -96.17578125 36.32421875 Z " fill="#38C0C4" transform="translate(1184.875,191.375)"/>
<path d="M0 0 C18.66294337 15.73389809 27.42379295 35.65014437 30.8125 59.37109375 C30.8125 67.29109375 30.8125 75.21109375 30.8125 83.37109375 C-12.4175 83.37109375 -55.6475 83.37109375 -100.1875 83.37109375 C-95.71390441 102.50676194 -95.71390441 102.50676194 -82.1875 114.37109375 C-67.63848048 121.03014568 -52.97526249 120.70667076 -37.90625 115.59765625 C-30.45281824 112.26804944 -23.80218978 106.20962499 -18.1875 100.37109375 C-12.86172242 101.96657986 -8.03964075 104.27290337 -3.0703125 106.72265625 C-1.7845784 107.35099869 -1.7845784 107.35099869 -0.47286987 107.99203491 C2.24898826 109.32321155 4.96826448 110.65956929 7.6875 111.99609375 C9.53889416 112.9026876 11.39045491 113.80894134 13.2421875 114.71484375 C17.76756344 116.92966015 22.2906319 119.14912493 26.8125 121.37109375 C26.8125 127.72905427 22.62627932 131.50547138 18.8125 136.37109375 C18.27367187 137.07878906 17.73484375 137.78648437 17.1796875 138.515625 C1.19415389 158.23647174 -24.44293126 166.9697944 -48.8203125 169.8671875 C-77.82407582 172.84099108 -105.79499693 167.39973925 -128.9375 148.99609375 C-149.84690328 131.02994958 -162.8968431 109.66035498 -165.40625 81.95605469 C-166.97800401 58.07521717 -160.18505677 34.954225 -144.90234375 16.421875 C-144.0028757 15.4000978 -143.09773792 14.38328857 -142.1875 13.37109375 C-141.46071045 12.55584229 -141.46071045 12.55584229 -140.71923828 11.72412109 C-105.40319197 -27.22623871 -41.55542972 -32.76910881 0 0 Z M-91.1015625 30.56640625 C-95.89905018 36.86434275 -96.46873468 39.77726714 -98.1875 48.37109375 C-76.0775 48.37109375 -53.9675 48.37109375 -31.1875 48.37109375 C-32.3241538 39.27786334 -34.65334439 32.88040573 -41.875 26.99609375 C-56.67745732 17.16502775 -78.78803023 16.44353863 -91.1015625 30.56640625 Z " fill="#4A4A4A" transform="translate(758.1875,211.62890625)"/>
<path d="M0 0 C4.30908669 1.31702175 8.07762291 2.98486455 12.015625 5.16796875 C12.58009338 5.47944351 13.14456177 5.79091827 13.72613525 6.11183167 C15.5704168 7.13176001 17.41031166 8.15931308 19.25 9.1875 C20.54612858 9.90739832 21.84235399 10.6271223 23.13867188 11.34667969 C34.84702569 17.86029137 46.44897159 24.5550341 58.03515625 31.28320312 C62.51201817 33.87553621 67.00530836 36.43874537 71.5 39 C79.20176002 43.39213869 86.88551263 47.81471379 94.5625 52.25 C104.05024207 57.72990922 113.55039278 63.18752142 123.0625 68.625 C123.64959747 68.96084106 124.23669495 69.29668213 124.84158325 69.6427002 C131.53721309 73.47214342 138.24478899 77.2765181 145 81 C144.41783367 84.83291486 143.31079893 87.57153606 141.33203125 90.89453125 C140.77580078 91.83748047 140.21957031 92.78042969 139.64648438 93.75195312 C139.04126953 94.76193359 138.43605469 95.77191406 137.8125 96.8125 C136.52715493 98.98556541 135.242004 101.15874566 133.95703125 103.33203125 C133.29783691 104.44143066 132.63864258 105.55083008 131.95947266 106.69384766 C129.52629014 110.79927472 127.12078375 114.9203635 124.72021484 119.04492188 C123.57038763 121.02015727 122.41835652 122.99411133 121.26416016 124.96679688 C118.25360095 130.11331118 115.26972303 135.27297489 112.32421875 140.45703125 C98.57007941 164.57405437 82.9924735 182.23663957 55.59375 190.08984375 C39.50325619 194.1649362 21.66598006 193.38077018 6 188 C4.9378125 187.63777344 3.875625 187.27554688 2.78125 186.90234375 C-16.95222632 179.40057118 -33.17587976 163.90809272 -42.10424805 144.84985352 C-51.32356209 123.88087676 -52.64892014 101.86102384 -44.71875 80.18359375 C-38.38500405 64.11364442 -28.76116495 49.20050697 -19.99755859 34.38183594 C-16.59863768 28.62751517 -13.22149811 22.86042683 -9.84234619 17.09448242 C-8.70307567 15.15156286 -7.56241177 13.20946771 -6.42138672 11.26757812 C-5.72232402 10.07682685 -5.02326771 8.88607183 -4.32421875 7.6953125 C-3.70635498 6.64359863 -3.08849121 5.59188477 -2.4519043 4.50830078 C-1.59493078 3.02779869 -0.76502158 1.53004315 0 0 Z " fill="#FFD85F" transform="translate(61,184)"/>
<path d="M0 0 C9.9541764 7.70787996 18.27066083 16.29857812 24.375 27.375 C24.83390625 28.17292969 25.2928125 28.97085938 25.765625 29.79296875 C35.74494474 48.21864044 37.90903371 73.02415527 31.9453125 93.12890625 C28.87327592 102.04033385 24.00470522 110.20638056 19.375 118.375 C18.35856685 120.19616377 17.342945 122.01778058 16.328125 123.83984375 C13.64707485 128.63175834 10.93134125 133.40312545 8.20507812 138.16943359 C6.55591787 141.0581041 4.91394816 143.95066799 3.27522278 146.84526062 C1.84824982 149.36489018 0.41821728 151.88277537 -1.01235962 154.40036011 C-1.70182481 155.61473329 -2.39031312 156.82966172 -3.07772827 158.04519653 C-7.01492007 165.00294225 -11.06391292 171.80626857 -15.625 178.375 C-26.06535052 173.43118696 -36.04878604 167.87807873 -45.99536133 162.0078125 C-53.70352158 157.46844927 -61.482343 153.07523486 -69.3125 148.75 C-86.30388291 139.35667325 -103.12325323 129.67654064 -119.93334961 119.96337891 C-127.8632948 115.38320796 -135.80929201 110.83194665 -143.77734375 106.31835938 C-148.80674667 103.45793791 -153.74493853 100.4835438 -158.625 97.375 C-158.04590398 93.59684858 -156.98574423 90.89321204 -155.02734375 87.62109375 C-154.48126465 86.69844727 -153.93518555 85.77580078 -153.37255859 84.82519531 C-152.77523926 83.83100586 -152.17791992 82.83681641 -151.5625 81.8125 C-150.28122058 79.65052814 -149.00132856 77.48773358 -147.72265625 75.32421875 C-147.05121582 74.19032715 -146.37977539 73.05643555 -145.68798828 71.88818359 C-142.56935508 66.59671252 -139.54618903 61.25080158 -136.51422119 55.90939331 C-133.56617467 50.72268007 -130.59453142 45.54942979 -127.625 40.375 C-127.05442871 39.37758789 -126.48385742 38.38017578 -125.89599609 37.35253906 C-120.22444085 27.48027111 -114.80002117 18.39004033 -106.625 10.375 C-105.80708984 9.45267578 -105.80708984 9.45267578 -104.97265625 8.51171875 C-79.34178644 -19.75117192 -30.09089205 -20.74937048 0 0 Z " fill="#38C0C4" transform="translate(230.625,75.625)"/>
<path d="M0 0 C20.79 0 41.58 0 63 0 C63 22.11 63 44.22 63 67 C75.54 67 88.08 67 101 67 C101 82.84 101 98.68 101 115 C88.46 115 75.92 115 63 115 C63.09105838 126.30878047 63.09105838 126.30878047 63.20898438 137.6171875 C63.26310095 142.2362963 63.31421774 146.85528915 63.34643555 151.47460938 C63.37263995 155.20308549 63.4131598 158.93116728 63.46318626 162.65939713 C63.47974015 164.07453594 63.49132532 165.48974278 63.49761391 166.90496445 C63.50219491 180.8252751 63.50219491 180.8252751 69.375 193.0625 C72.85472552 195.63086884 74.84342848 196.29515121 79.140625 195.70703125 C83.67280518 194.82910893 87.12333298 193.58444468 91 191 C91.66 191 92.32 191 93 191 C95.16891939 197.75816467 97.3218301 204.52127583 99.46362305 211.28808594 C100.19430739 213.59004193 100.92866505 215.89083527 101.66674805 218.19042969 C102.72629433 221.49376297 103.77261158 224.80103589 104.81640625 228.109375 C105.14967422 229.13867126 105.4829422 230.16796753 105.8263092 231.22845459 C106.12669601 232.18914856 106.42708282 233.14984253 106.73657227 234.13964844 C107.00526627 234.98348083 107.27396027 235.82731323 107.55079651 236.69671631 C108.04131596 239.21184692 107.9225087 240.62344062 107 243 C91.09102767 254.92306423 65.17629873 254.87211587 46.40527344 252.69970703 C33.69204857 250.47899463 21.19828101 244.09315729 13.609375 233.51171875 C4.53257619 219.34574391 -0.19864215 203.84618415 -0.11352539 186.95336914 C-0.11367142 186.18181488 -0.11381744 185.41026062 -0.1139679 184.61532593 C-0.11327638 182.08857317 -0.10551994 179.56189598 -0.09765625 177.03515625 C-0.09578936 175.27396179 -0.09436674 173.51276682 -0.09336853 171.75157166 C-0.08956467 167.13368273 -0.07975273 162.51582564 -0.06866455 157.89794922 C-0.05840446 153.17871532 -0.05386108 148.45947623 -0.04882812 143.74023438 C-0.03812842 134.4934734 -0.02054902 125.24674434 0 116 C-8.58 116 -17.16 116 -26 116 C-26 100.16 -26 84.32 -26 68 C-17.42 68 -8.84 68 0 68 C0 45.56 0 23.12 0 0 Z " fill="#38C0C4" transform="translate(1880,116)"/>
<path d="M0 0 C0.64936523 0.25370361 1.29873047 0.50740723 1.96777344 0.76879883 C6.49919982 2.62339965 6.49919982 2.62339965 7.625 4.875 C6.98597717 6.63406372 6.98597717 6.63406372 5.90258789 8.77392578 C5.50209732 9.5746048 5.10160675 10.37528381 4.6889801 11.20022583 C4.0250248 12.49716873 4.0250248 12.49716873 3.34765625 13.8203125 C2.9023204 14.7053244 2.45698456 15.5903363 1.99815369 16.50216675 C0.56870567 19.33860426 -0.87174707 22.16929069 -2.3125 25 C-3.28132684 26.91760118 -4.24943542 28.83556542 -5.21679688 30.75390625 C-7.59453446 35.46518797 -9.98133985 40.17178991 -12.375 44.875 C-16.66818128 44.09226277 -20.29426573 42.72393829 -24.3125 41 C-38.20232176 35.29890289 -53.75490655 31.88189683 -68.375 36.875 C-71.12203988 39.26758312 -71.34654858 40.67939649 -71.875 44.3125 C-71.23404414 48.87931054 -69.85386825 49.92664742 -66.375 52.875 C-63.1958042 54.48304658 -63.1958042 54.48304658 -59.5625 55.6875 C-58.88525879 55.93193848 -58.20801758 56.17637695 -57.51025391 56.42822266 C-53.19639924 57.96405025 -48.84507972 59.36986792 -44.48046875 60.75390625 C-25.35602729 66.8512264 -5.62838716 74.27279886 4.625 92.875 C11.71844974 108.51743852 12.69751456 124.40854175 7.625 140.875 C2.70735601 153.75229212 -6.498216 164.85676669 -19.16992188 170.703125 C-50.75065336 184.18774751 -88.29935978 184.40783666 -120.1875 172 C-129.49336148 168.21691562 -137.50847492 163.07153651 -145.375 156.875 C-143.87004684 152.77271186 -141.88992012 149.1554589 -139.671875 145.39453125 C-139.31160217 144.78163742 -138.95132935 144.16874359 -138.58013916 143.53727722 C-137.43167412 141.5854166 -136.27838146 139.63645857 -135.125 137.6875 C-134.36557532 136.39796903 -133.60645801 135.10825699 -132.84765625 133.81835938 C-128.72467033 126.81646131 -124.57044664 119.83377411 -120.375 112.875 C-117.00620089 114.88402928 -113.71176985 116.96569724 -110.4375 119.125 C-97.13213526 127.58878997 -83.56536268 134.77246926 -67.375 132.875 C-62.94198458 131.48157142 -60.00787663 129.82431494 -57.375 125.875 C-56.90876101 119.72272573 -56.90876101 119.72272573 -58.375 113.875 C-60.02893921 113.17735588 -61.69810555 112.51550545 -63.375 111.875 C-64.91380748 111.10741557 -66.44495888 110.32432239 -67.96875 109.52734375 C-74.38735342 106.28357176 -81.0673002 103.83940279 -87.80859375 101.35742188 C-104.05680604 95.19618701 -121.64531797 84.15055452 -129.55078125 68.125 C-132.02534159 61.3698021 -132.73388081 55.20241582 -132.6875 48.0625 C-132.68331055 47.18174805 -132.67912109 46.30099609 -132.67480469 45.39355469 C-132.56129475 38.84620508 -131.83147018 32.99481484 -129.375 26.875 C-129.11976562 26.18792969 -128.86453125 25.50085938 -128.6015625 24.79296875 C-125.88450185 18.4739332 -121.13325862 13.73153591 -116.375 8.875 C-115.84261719 8.30652344 -115.31023437 7.73804688 -114.76171875 7.15234375 C-86.94735314 -19.79956091 -32.52280867 -12.74909624 0 0 Z " fill="#38C0C4" transform="translate(1377.375,188.125)"/>
<path d="M0 0 C-1.50145381 4.91354358 -3.5135905 9.39323293 -5.7734375 13.98828125 C-6.13845367 14.73208542 -6.50346985 15.47588959 -6.87954712 16.24223328 C-7.64884114 17.80398244 -8.42047881 19.36457912 -9.19433594 20.92407227 C-10.3768839 23.31631104 -11.53991761 25.71745083 -12.703125 28.11914062 C-13.45453969 29.63860964 -14.20710403 31.15751078 -14.9609375 32.67578125 C-15.47834 33.75536858 -15.47834 33.75536858 -16.00619507 34.85676575 C-18.50648432 39.81292401 -18.50648432 39.81292401 -20.97769165 40.74967957 C-23.84412512 41.10448543 -25.38474522 40.12150659 -27.9375 38.8125 C-42.38805047 31.86772407 -59.66964258 27.65514222 -75.328125 32.953125 C-77.53011245 34.33193957 -78.12470823 35.5761151 -79 38 C-79.07767129 41.54024142 -79.07767129 41.54024142 -78 45 C-74.38014202 48.48652987 -70.69138632 50.11675932 -66 51.8125 C-64.97144897 52.18979248 -64.97144897 52.18979248 -63.92211914 52.57470703 C-59.91157539 54.02685418 -55.87449905 55.37162801 -51.80859375 56.66015625 C-33.23787243 62.56278077 -12.4894887 70.57893408 -2.53125 88.66796875 C1.67830113 97.53984249 3.37447449 105.49787057 3.3125 115.25 C3.30686035 116.17804443 3.3012207 117.10608887 3.29541016 118.06225586 C3.04572917 132.20384091 -1.11626052 145.71499467 -11.03125 156.1953125 C-21.94983235 166.20401299 -34.80211429 170.72706157 -49 174 C-49.92941406 174.2165625 -50.85882812 174.433125 -51.81640625 174.65625 C-80.01362691 180.23823255 -116.29598369 178.02989963 -140.95019531 161.70898438 C-144.77734204 158.97447934 -148.41892733 156.04759095 -152 153 C-151.31997369 149.06196406 -149.44355561 146.06945321 -147.4296875 142.65234375 C-147.0703714 142.04040665 -146.7110553 141.42846954 -146.34085083 140.79798889 C-145.57821876 139.50139079 -144.81317518 138.20620849 -144.04589844 136.91235352 C-142.89506704 134.97134534 -141.75155431 133.02618737 -140.609375 131.08007812 C-136.22000427 123.62329419 -131.70697296 116.26215993 -127 109 C-126.1797937 109.56763062 -126.1797937 109.56763062 -125.34301758 110.14672852 C-109.9322515 120.74366145 -94.23634948 130.2625289 -75 129 C-70.89443754 128.1928693 -67.90988587 126.93745817 -64.9375 123.875 C-63.62225482 119.84158146 -63.507566 116.01091639 -65 112 C-68.54576241 108.52619956 -72.59980078 106.63371692 -77.125 104.75 C-77.81513184 104.45335449 -78.50526367 104.15670898 -79.21630859 103.85107422 C-83.05097882 102.21033126 -86.90729838 100.63143037 -90.78125 99.0859375 C-108.08210596 92.12614407 -128.13635562 82.25009089 -136.21484375 64.30078125 C-141.67840531 50.04885731 -141.21168859 35.64206602 -136.0390625 21.34375 C-129.57654794 6.86038403 -116.8834547 -1.91667272 -102.625 -7.8125 C-70.92266607 -19.21152322 -29.44036139 -16.79832385 0 0 Z " fill="#38C0C4" transform="translate(1836,192)"/>
<path d="M0 0 C-1.50044825 4.9244125 -3.52846745 9.39330294 -5.80859375 13.98828125 C-6.1759816 14.73208542 -6.54336945 15.47588959 -6.92189026 16.24223328 C-7.69551551 17.80392172 -8.47134667 19.36451916 -9.24926758 20.92407227 C-10.44001243 23.31755015 -11.61561904 25.71809588 -12.79101562 28.11914062 C-13.54595672 29.63847746 -14.30178509 31.15737381 -15.05859375 32.67578125 C-15.58373817 33.75536858 -15.58373817 33.75536858 -16.11949158 34.85676575 C-18.65706317 39.88568772 -18.65706317 39.88568772 -22 41 C-24.7578125 39.92578125 -24.7578125 39.92578125 -28.125 38.3125 C-41.88973301 32.09523233 -58.50253329 27.80066087 -73.375 32.375 C-77.04397485 33.56025153 -77.04397485 33.56025153 -78 36 C-78.75335086 41.77028139 -78.75335086 41.77028139 -75.9140625 46.58203125 C-72.67256 49.2716962 -69.96661927 50.47841946 -66 51.875 C-65.31647461 52.12056641 -64.63294922 52.36613281 -63.92871094 52.61914062 C-58.97775013 54.37742577 -53.97924192 55.98807539 -48.98217773 57.609375 C-29.96727803 63.80778034 -10.92026721 72.49408041 -1.125 91.0625 C5.29637271 105.11194633 5.49232036 121.68278138 0.9609375 136.3671875 C-5.52376467 152.80904525 -16.06157893 162.16660165 -31.96875 169.16308594 C-62.42329613 181.71094461 -100.32538723 179.25077112 -130.5 167.1875 C-136.97679227 164.26005057 -142.45488857 160.40789366 -148 156 C-149.3306221 154.9963952 -150.66297895 153.99506406 -152 153 C-150.64945646 148.42668548 -148.79344855 144.69649606 -146.296875 140.640625 C-145.75646576 139.75670074 -145.75646576 139.75670074 -145.20513916 138.85491943 C-144.05907373 136.98307647 -142.90480591 135.11646049 -141.75 133.25 C-140.99031824 132.01336908 -140.23119897 130.77639243 -139.47265625 129.5390625 C-138.36108351 127.72647187 -137.24892808 125.91426225 -136.13415527 124.1036377 C-133.04919136 119.09297409 -130.0118527 114.05487814 -127 109 C-126.13117188 109.58136719 -125.26234375 110.16273438 -124.3671875 110.76171875 C-108.92352141 121.04092892 -91.88208163 132.31892317 -72.4765625 128.50390625 C-69.29570328 127.45741539 -67.22630592 126.25459415 -65 123.75 C-63.71552413 120.21769135 -63.53311103 117.73511175 -64 114 C-66.84210606 109.59644772 -69.76103044 107.80011585 -74.5 105.6875 C-75.14582031 105.39536621 -75.79164062 105.10323242 -76.45703125 104.80224609 C-81.06013034 102.7531735 -85.73756419 100.92408231 -90.43920898 99.11547852 C-107.01308585 92.70493238 -126.31887987 83.44443795 -135.1484375 66.96484375 C-141.17781622 53.05302038 -141.12857409 38.38973815 -137 24 C-131.26418493 9.69608851 -120.24856738 0.16287754 -106.5 -6.1875 C-74.32739351 -19.33783314 -30.01117756 -18.10817475 0 0 Z " fill="#38C0C4" transform="translate(1557,192)"/>
<path d="M0 0 C1.0725 0.7425 2.145 1.485 3.25 2.25 C12.55917705 11.55917705 13.21833196 23.2385371 13.25994873 35.81324768 C13.25446819 37.17904743 13.24878531 38.54484638 13.24291992 39.91064453 C13.24399519 41.37860702 13.2459375 42.84656909 13.24867249 44.31452942 C13.25348061 48.26634126 13.24591918 52.21803853 13.23571944 56.16983652 C13.22688615 60.31332662 13.22869731 64.45681369 13.2290802 68.60031128 C13.22814683 75.54508363 13.21950166 82.489812 13.20581055 89.43457031 C13.19002655 97.47081384 13.18481474 105.50700946 13.1855461 113.54326737 C13.18615526 121.28162751 13.18106402 129.01997203 13.17275429 136.75832748 C13.16921855 140.05098467 13.16739065 143.34363633 13.16686058 146.63629532 C13.16585979 150.50231633 13.15978503 154.36829679 13.14969444 158.23430443 C13.14676287 159.65616673 13.14554539 161.0780337 13.14612198 162.49989891 C13.14660929 164.43232019 13.14036366 166.36473976 13.13371277 168.29714966 C13.13203692 169.3807181 13.13036108 170.46428654 13.12863445 171.58069038 C13 174 13 174 12 175 C10.03630847 175.0940067 8.06920801 175.11743381 6.10327148 175.11352539 C4.84203964 175.11344986 3.5808078 175.11337433 2.28135681 175.11329651 C0.89460206 175.1081891 -0.49215229 175.10297309 -1.87890625 175.09765625 C-3.28995209 175.09579201 -4.70099857 175.09436814 -6.11204529 175.09336853 C-9.83240535 175.08954379 -13.5527266 175.0797139 -17.27307129 175.06866455 C-21.06680781 175.05844948 -24.86055058 175.05387071 -28.65429688 175.04882812 C-36.10288231 175.03809158 -43.55143572 175.0210157 -51 175 C-51.07017709 155.35439286 -51.12303075 135.70881126 -51.15543652 116.06310463 C-51.17088508 106.94062731 -51.19193603 97.81822801 -51.22631836 88.69580078 C-51.25628241 80.74183135 -51.27558961 72.78791844 -51.28226548 64.83389413 C-51.2861659 60.62488515 -51.29529023 56.41603785 -51.31719017 52.20708084 C-51.33766619 48.23935953 -51.34381152 44.27186535 -51.33932304 40.30409622 C-51.3401433 38.85375735 -51.3460425 37.40341029 -51.35761642 35.95311737 C-51.45061664 23.69028728 -50.15392937 12.55622858 -41.40234375 3.3125 C-29.56163403 -7.47630157 -13.33122159 -9.34778885 0 0 Z " fill="#38C0C4" transform="translate(1641,189)"/>
<path d="M0 0 C2.63991596 2.81889331 4.86002858 5.79004287 7 9 C7.598125 9.86625 8.19625 10.7325 8.8125 11.625 C13.02659546 20.05319092 13.387748 30.12710771 11.2421875 39.20703125 C8.61382103 46.77134578 4.89018075 52.54080809 -1 58 C-1.721875 58.680625 -2.44375 59.36125 -3.1875 60.0625 C-12.21504613 66.28147622 -22.8358971 68.45303792 -33.58984375 66.5390625 C-44.57522688 63.58880163 -53.09560174 57.62564746 -59.24609375 48.0625 C-64.2803201 38.91606678 -64.76065207 29.15564526 -63 19 C-61.99937579 15.77026245 -60.65523795 12.94140257 -59 10 C-58.6390625 9.30132812 -58.278125 8.60265625 -57.90625 7.8828125 C-53.02007021 -0.8660905 -45.31619177 -4.98918337 -36 -8 C-23.33798123 -11.10090256 -10.21976378 -8.06090397 0 0 Z " fill="#FED75F" transform="translate(1649,102)"/>
<path d="M0 0 C4.01889594 1.74391378 7.09438265 3.98118048 10 7.25 C11.85147626 12.3415597 11.99237931 16.62157381 9.87866211 21.6875 C6.16156515 28.926219 2.21833932 35.97908219 -2 42.9375 C-2.59039062 43.93845703 -3.18078125 44.93941406 -3.7890625 45.97070312 C-7.39541314 51.93230259 -10.61633156 56.80816578 -17 60 C-21.55897843 60.5972791 -26.07410452 61.04461115 -30.2109375 58.80078125 C-33.88488708 55.7236547 -36.30077067 52.7043674 -37.51831055 47.99536133 C-38.22174062 39.34060836 -33.55162694 32.90830743 -29.15698242 25.84838867 C-27.81255414 23.68758701 -26.50073741 21.50954959 -25.19335938 19.32617188 C-24.3455774 17.92857736 -23.49602679 16.53205385 -22.64453125 15.13671875 C-22.05983818 14.1725428 -22.05983818 14.1725428 -21.46333313 13.18888855 C-16.49246298 5.23572026 -10.2085394 -2.00792962 0 0 Z " fill="#FCFEFE" transform="translate(138,106)"/>
</svg>
